<svg xmlns="http://www.w3.org/2000/svg" viewBox="0 0 256 256" role="img" aria-label="HUAZAIDESIGN">
  <rect width="256" height="256" rx="58" fill="#090909"/>
  <defs>
    <linearGradient id="ringA" x1="42" y1="86" x2="216" y2="170" gradientUnits="userSpaceOnUse">
      <stop offset="0" stop-color="#f7f4ea"/>
      <stop offset=".22" stop-color="#bfc4bd"/>
      <stop offset=".5" stop-color="#ffffff"/>
      <stop offset=".78" stop-color="#8b928b"/>
      <stop offset="1" stop-color="#f5f1e8"/>
    </linearGradient>
    <linearGradient id="ringB" x1="42" y1="170" x2="216" y2="86" gradientUnits="userSpaceOnUse">
      <stop offset="0" stop-color="#6e756f"/>
      <stop offset=".34" stop-color="#f0eee6"/>
      <stop offset=".62" stop-color="#9ca29b"/>
      <stop offset="1" stop-color="#ffffff"/>
    </linearGradient>
    <linearGradient id="play" x1="106" y1="101" x2="157" y2="154" gradientUnits="userSpaceOnUse">
      <stop offset="0" stop-color="#f8f6ee"/>
      <stop offset="1" stop-color="#b9bfb8"/>
    </linearGradient>
    <filter id="softShadow" x="-20%" y="-30%" width="140%" height="160%" color-interpolation-filters="sRGB">
      <feDropShadow dx="0" dy="6" stdDeviation="5" flood-color="#000000" flood-opacity=".42"/>
    </filter>
  </defs>
  <g filter="url(#softShadow)">
    <path d="M49 130c20-50 72-62 109-25l22 22c19 19 42 14 56-19" fill="none" stroke="url(#ringA)" stroke-width="23" stroke-linecap="round"/>
    <path d="M207 126c-20 50-72 62-109 25l-22-22c-19-19-42-14-56 19" fill="none" stroke="url(#ringB)" stroke-width="23" stroke-linecap="round"/>
    <path d="M79 108c20-18 52-16 77 9l24 24" fill="none" stroke="#050505" stroke-opacity=".34" stroke-width="8" stroke-linecap="round"/>
    <path d="M101 99c0-9 10-15 18-10l47 27c9 5 9 17 0 22l-47 27c-8 5-18-1-18-10V99z" fill="url(#play)" stroke="#f8f6ee" stroke-opacity=".42" stroke-width="3" stroke-linejoin="round"/>
    <path d="M116 112l36 20-36 20z" fill="#ffffff" opacity=".22"/>
  </g>
</svg>
